<svg class="svg-icon" style="width: 1em; height: 1em;vertical-align: middle;fill: currentColor;overflow: hidden;" viewBox="0 0 1024 1024" version="1.1" xmlns="http://www.w3.org/2000/svg"><path d="M864 501.333333c33.408 0 65.258667-6.613333 94.528-18.304a445.696 445.696 0 0 0-25.088-121.770666 503.68 503.68 0 0 0-282.154667 26.282666C697.258667 456.106667 775.424 501.333333 864 501.333333zM901.845333 291.733333a448.853333 448.853333 0 0 0-240.810666-201.792A254.378667 254.378667 0 0 0 608 245.333333c0 29.674667 5.333333 58.048 14.656 84.565334a568.682667 568.682667 0 0 1 279.189333-38.165334zM564.544 357.333333a318.784 318.784 0 0 1-20.544-112c0-63.936 18.944-123.328 51.242667-173.312A449.664 449.664 0 0 0 512 64c-90.88 0-175.296 27.242667-245.930667 73.749333a844.736 844.736 0 0 0 155.2 330.538667 572.565333 572.565333 0 0 1 143.274667-110.954667z" fill="#0367FD" /><path d="M876.522667 771.797333a444.778667 444.778667 0 0 0 81.493333-220.565333 319.765333 319.765333 0 0 1-94.016 14.101333c-114.346667 0-214.4-60.16-270.976-150.357333a509.824 509.824 0 0 0-130.453333 103.082667c108.842667 121.152 251.946667 210.858667 413.952 253.738666zM117.333333 650.666667c-10.346667 0-20.501333 0.746667-30.634666 1.557333a448.789333 448.789333 0 0 0 180.672 234.837333 570.261333 570.261333 0 0 1 23.872-194.304A381.098667 381.098667 0 0 0 117.333333 650.666667zM117.333333 586.666667c70.421333 0 136.789333 16.704 196.074667 45.653333a569.429333 569.429333 0 0 1 65.6-113.664A908.330667 908.330667 0 0 1 210.453333 181.354667C120.682667 263.296 64 380.885333 64 512c0 26.325333 2.730667 51.968 7.082667 77.056A447.829333 447.829333 0 0 1 117.333333 586.666667zM334.954667 923.52c49.002667 21.12 102.613333 33.301333 158.826666 35.562667-18.816-93.888-72.192-175.210667-146.005333-230.848-11.114667 41.642667-17.109333 85.333333-17.109333 130.432 0 21.994667 1.557333 43.584 4.288 64.853333zM558.250667 957.610667c106.709333-10.944 202.197333-59.456 273.344-131.925334a911.850667 911.850667 0 0 1-409.664-256.618666 506.88 506.88 0 0 0-52.48 95.317333 447.872 447.872 0 0 1 188.8 293.226667z" fill="#0367FD" /></svg>